<?xml version="1.0" standalone="no"?>
<!DOCTYPE svg PUBLIC "-//W3C//DTD SVG 20010904//EN"
 "http://www.w3.org/TR/2001/REC-SVG-20010904/DTD/svg10.dtd">
<svg version="1.0" xmlns="http://www.w3.org/2000/svg"
 width="512.000000pt" height="512.000000pt" viewBox="0 0 512.000000 512.000000"
 preserveAspectRatio="xMidYMid meet">
<metadata>
Created by potrace 1.11, written by Peter Selinger 2001-2013
</metadata>
<g transform="translate(0.000000,512.000000) scale(0.100000,-0.100000)"
fill="#000000" stroke="none">
<path d="M2202 4639 c0 -264 -3 -484 -7 -487 -4 -4 -10 -7 -13 -8 -68 -8 -250
-57 -367 -99 -403 -146 -746 -425 -946 -772 -96 -166 -172 -401 -185 -573 -5
-60 -5 -236 0 -280 35 -337 183 -644 433 -897 162 -163 339 -290 523 -375 47
-21 94 -43 105 -48 29 -14 255 -88 285 -94 14 -2 55 -11 92 -19 37 -8 70 -12
73 -9 6 7 6 54 6 -505 l1 -473 358 0 359 0 -1 481 c0 264 2 482 5 485 3 3 55
16 117 30 520 117 959 423 1207 842 60 102 140 301 158 393 32 163 35 191 35
334 0 116 -3 162 -15 215 -3 14 -8 41 -11 60 -37 215 -170 488 -323 665 -62
72 -213 213 -285 269 -213 163 -519 301 -778 352 -47 9 -92 20 -98 24 -9 6
-12 129 -12 489 l1 481 -359 0 -358 0 0 -481z m-1 -2026 c0 -439 0 -823 -1
-854 l0 -57 -62 19 c-374 115 -645 366 -721 667 -34 131 -29 268 14 395 89
268 334 489 668 603 53 18 97 31 99 29 2 -2 3 -362 3 -802z m876 754 c197 -72
414 -235 516 -390 91 -137 137 -294 131 -445 -12 -298 -210 -566 -541 -732
-72 -36 -254 -102 -261 -95 -3 2 -5 1458 -2 1671 l0 42 58 -18 c31 -10 76 -25
99 -33z"/>
</g>
</svg>
